/* XPM */
static char *result[] = {
/* columns rows colors chars-per-pixel */
"64 64 171 2 ",
"   c white",
".  c #EAF9FF",
"X  c #E7F9FF",
"o  c #FCFEFF",
"O  c #F7FDFF",
"+  c #F0FBFF",
"@  c #E8F9FF",
"#  c #FDFEFF",
"$  c #E9F9FF",
"%  c #ECFAFF",
"&  c #E3F8FF",
"*  c #E5F8FF",
"=  c #F3FCFF",
"-  c #F6FCFF",
";  c #F2FBFF",
":  c #F5FCFF",
">  c #F4FBFF",
",  c #D9F5FF",
"<  c #E1F7FF",
"1  c #EBFAFF",
"2  c #EBF9FF",
"3  c #DCF6FF",
"4  c #DEF6FF",
"5  c #E6F8FF",
"6  c #E0F7FF",
"7  c #DAF5FF",
"8  c #EEFAFF",
"9  c #F1FBFF",
"0  c #DFF6FF",
"q  c #F9FDFF",
"w  c #E2F7FF",
"e  c #E4F8FF",
"r  c #F4FCFF",
"t  c #D9D9D4",
"y  c #D2CABF",
"u  c #CBBAA9",
"i  c #CFC2B4",
"p  c #DCE2DF",
"a  c #B68A68",
"s  c #AF7B53",
"d  c #BD9B7E",
"f  c #C1A289",
"g  c #B98257",
"h  c #C3895C",
"j  c #BB8358",
"k  c #E3F1F5",
"l  c #C4AA93",
"z  c #C0875A",
"x  c #D29362",
"c  c #D79765",
"v  c #B3835D",
"b  c #E0EAEA",
"n  c #EDFAFF",
"m  c #BA9273",
"M  c #B47E55",
"N  c #D49563",
"B  c #E1CEBF",
"V  c #FEFEFF",
"C  c #FBFDFF",
"Z  c #C88C5E",
"A  c #BE9373",
"S  c #E8F2F5",
"D  c #B68056",
"F  c #B17C54",
"G  c #F5EFEA",
"H  c #FAFDFF",
"J  c #F8FDFF",
"K  c #EFFAFF",
"L  c #BA9273",
"P  c #BE8559",
"I  c #DCC5B4",
"U  c #C58A5D",
"Y  c #C8A489",
"T  c #D5D2C9",
"R  c #CD9060",
"E  c #B4835D",
"W  c #EBDED4",
"Q  c #D2B59E",
"!  c #CA8E5F",
"~  c #CF9161",
"^  c #B98B68",
"/  c #B4835D",
"(  c #EBF2F5",
")  c #C7AA93",
"_  c #F0FAFF",
"`  c #F7FCFF",
"'  c #D7C3B4",
"]  c #EAF2F5",
"[  c #DEDAD4",
"{  c #F3FBFF",
"}  c #F0E7DF",
"|  c #E6D6C9",
" . c #C39C7E",
".. c #E6DCD4",
"X. c #CDAC93",
"o. c #BA875E",
"O. c #E3C1A0",
"+. c #DEB18A",
"@. c #DAA173",
"#. c #BA9678",
"$. c #CFB397",
"%. c #EFEBDC",
"&. c #E9D6BE",
"*. c #D6AF8D",
"=. c #B6B3A7",
"-. c #B5AC9C",
";. c #E3DDCC",
":. c #C7A586",
">. c #FBFEFF",
",. c #EDECE9",
"<. c #BDBAAD",
"1. c #C1AC94",
"2. c #B2977D",
"3. c #BF9A7D",
"4. c #FAF7F5",
"5. c #F1FAFF",
"6. c #DBD9D3",
"7. c #CBC8BA",
"8. c #C4C1B4",
"9. c #D6D2C4",
"0. c #C7C4B7",
"q. c #ECEBE8",
"w. c #FEFEFE",
"e. c #F9F9F9",
"r. c #F4F4F4",
"t. c #D4D2CC",
"y. c #E0DDCE",
"u. c #D2CFC1",
"i. c #E3E2DF",
"p. c gray99",
"a. c gray95",
"s. c #E7E4D5",
"d. c #D9D6C8",
"f. c #EFF1F2",
"g. c #E8EFF2",
"h. c #E4EEF2",
"j. c #E4F5FB",
"k. c gray97",
"l. c #DCDBD6",
"z. c #E4E0D2",
"x. c #DEECF2",
"c. c #DBECF2",
"v. c #DEEFF5",
"b. c #E6F8FE",
"n. c gray96",
"m. c #E7E6E4",
"M. c #B9B6AA",
"N. c #DCEDF3",
"B. c #FBFBFB",
"V. c #BEBBB1",
"C. c #E0F1F7",
"Z. c #DFF0F6",
"A. c gray98",
"S. c #EDF0F2",
"D. c #E6EDEA",
"F. c #E6ECE5",
"G. c #EEECDE",
"H. c #E3ECEA",
"J. c #F0F1F2",
"K. c #E7EFF2",
"L. c #E3F5FB",
"P. c #DFEDF2",
"I. c #FDFDFD",
"U. c #F3F3F3",
"Y. c #E9EFF2",
"T. c #E2F4FA",
"R. c #E2F3F9",
"E. c #E5F7FD",
"W. c #DDEEF4",
"Q. c #E4F6FC",
"!. c #DDF6FF",
/* pixels */
"                    . X X X X X X X X X X X X X X X X X X X X X X X X X X X X X X X X X X X X X X X X X X X o                   ",
"                  O X X X X X X X X X X X X X X X X X X X X X X X X X X X X X X X X X X X X X X X X X X X +                     ",
"                  + X X X X X X X X X X X X X X X X X X X X X X X X X X X X X X X X X X X X X X X X X X @ #                     ",
"                # X X X X X X X X X X X X X X X X X $ % % X X X X X X X X X X X X & * X X X X X X X X X =                       ",
"                - X X X X X X X X X X X X X X % ; : : : > X X X X X X X X X X X * , , < X X X X X X X . #                       ",
"                1 X X X X X X X X X X X X X X 2 : : : : : X X X X X X X X X X X 3 , , , 4 5 X X X X X O                         ",
"              o X X X X X X X X X X X X X X X . : : : : : $ X X X X X X X X X 6 , , , , , 7 5 X X X 8                           ",
"              9 X X X X X X X X X X X X X X X X : : : : : . X X X X X X X X & , , , , , , 4 X X X @ #                           ",
"              . X X X X X X X X X X X X X X X X > : : : : 8 X X X X X X X X 5 0 , , , , 7 5 X X X q                             ",
"            o X X X X X X X X X X X X X X X X X % 8 . $ X X X X X X X X X X X X w , , , e X X X r                               ",
"            r X X X X X X X X X X X X X X X X X X X X X X X t y u u u u u i p X X * 3 6 X X X +                                 ",
"            1 X X X X X X X X X X X X X X X X X X X X p u a s s s s s s s s s d t X X X X X 8 #                                 ",
"          o X X X X X X X X X X X X X X X X X X X X f s s s g h h h h h h j s s s t X X X 1 #                                   ",
"          9 X X X X X X X X X 9 : 9 9 8 % X X X k l s s z x c c c c c c c c x g s v b X n #                 # #                 ",
"        # @ X X X X X X X X X > : : : : 9 X X k m s M x c c c c c c c c c c c c j s d +                   # : : #               ",
"        - X X X X X X X X X X : : : : : 8 X b m s g N c c c c c c c c c c c c c N M s B                 V - : : : C             ",
"        . X X X X X X X X X X : : : : : 8 k m s g N c c c c c c c c c c c c c c c Z s A               V - : : : : : C           ",
"      - X X X X X X X X X X . : : : : : S m s D N c c c c c c c c c c c c c c c c c F s G             H : : : : : : J           ",
"      . X X X X X X X X X X @ 8 8 K 9 9 L s D N c c c c c c c c c c c c c c c c c c P s I               J : : : : J             ",
"    = X X X X X X X X X X X X X X X X l s F N c c c c c c c c c c c c c c c c c c c U s Y                 H : : - V             ",
"  o @ X X X X X X X X X X X X X X X T s s R c c c c c c c c c c c c c c c c c c c c x s E                   C - V               ",
"  n X X X X X X X X X X X X X X X k v s h c c c c c c c c c c c c c c c c c c c c c c D s W                                     ",
"r X X X X X X X X X X X X X X X X i s D c c c c c c c c c c c c c c c c c c c c c c c U s Q                                     ",
"@ X X X X X X X X X X X X X X X X f s ! c c c c c c c c c c c c c c c c c c c c c c c ~ s ^                                   H ",
"X X X X X X X X X X X X X X X X k s s c c c c c c c c c c c c c c c c c c c c c c c c c M s W                               # . ",
"X X X X X X X X X X X X X X X X y s g c c c c c c c c c c c c c c c c c c c c c c c c c h s / ( > H                         n X ",
"X X X X X X X X X X X X X X X X u s h c c c c c c c c c c c c c c c c c c c c c c c c c c D s ) 8 8 _ ` #                 + X X ",
"X X X X X X X X X X X X X X X . ' s M N c c c c c c c c c c c c c c c c c c c c c c c c c R s s ] 8 8 8 #               + X X X ",
"X X X X X X X X X X X X X . -   G E s D x c c c c c c c c c c c c c c c c c c c c c c c c c F s [ 8 8 {               + X X X X ",
"X X X X X X X X X X X X = #       } E s F U c c c c c c c c c c c c c c c c c c c c c c c c g s [ 8 8 J           # n X X X X X ",
"X X X X X X X X X X n o             G Y s s M h x c c c c c c c c c c c c c c c c c c c c c g s [ 8 8 #         o 1 X X X X X X ",
"X X X X X X X X X r                     |  .s s s j Z N c c c c c c c c c c c c c c c c c N F s ..; {         r @ X X X X X X X ",
"X X X X X X X @ q                           } X.E s s s o.O.+.@.c c c c c c c c c c c c N P s E           # 9 X X X X X X X X X ",
"X X X X X X 1 #                                   B #.s $.%.%.%.%.&.*.h R R R R R R R U M s s |         O . X X X X X X X X X X ",
"X X X X X n #                                       =.-.;.%.%.%.%.%.:.s s s s s s s s s s E |       H 1 X X X X X X X X X X X X ",
"X X X X n       >.q                               ,.=.<.%.%.%.%.%.%.1.2.3. . . . . . .X.B 4.    o 8 X X X X X X X X X X X X X X ",
"X X X 1 #     # 5.8 { #                           6.=.7.%.%.%.%.%.%.8.=.,.                  H 8 X X X X X X X X X X X X X X X X ",
"X X . #       > 8 8 8 K q                         6.=.9.%.%.%.%.%.%.0.=.q.              - n X X X X X X X X X X X X X X X X X X ",
"X X H       J 8 8 8 8 8 8 q                 w.e.r.t.=.y.%.%.%.%.%.%.u.=.i.r.e.w.  O + @ X X X X X X X X X X X X X X X X X X X X ",
"X =       # K 8 8 8 8 8 {                 p.r.a.a.t.=.s.%.%.%.%.%.%.d.=.i.f.g.h.j.X X X X X X X X X X X X X X X X X X X X X X X ",
"8           >.5.8 8 8 K #               k.a.a.a.a.l.=.%.%.%.%.%.%.%.z.=.x.c.c.c.c.v.b.X X X X X X X X X X X X X X X X X X X X X ",
"#             # > 8 8 H               n.a.a.a.a.a.m.=.%.%.%.%.%.%.%.%.M.c.c.c.c.c.c.N.b.X X X X X X X X X X X X X X X X X X X . ",
"                  q `               B.a.a.a.a.a.a.a.V.%.%.%.%.%.%.%.%.7.c.c.c.c.c.c.c.C.X X X X X X X X X X X X X X X X X X X q ",
"                                    e.a.a.a.a.a.a.a.l.%.%.%.%.%.%.%.%.z.c.c.c.c.c.c.c.Z.X X X X X X X X X X X X X X X X X X 8   ",
"                                    A.a.a.a.a.a.a.a.S.D.F.G.%.%.%.G.F.H.c.c.c.c.c.c.c.C.X X X X X X X X X X X X X X X X X @ #   ",
"                        C #           a.a.a.a.a.J.K.c.c.c.c.c.c.c.c.c.c.c.c.c.c.c.c.c.L.X X X X X X X X X X X X X X X X X r     ",
"                  o J : : J           B.a.a.a.S.P.c.c.c.c.c.c.c.c.c.c.c.c.c.c.c.c.c.C.X X X X X X X X X X X X X X X X X .       ",
"                C : : : : :             I.U.Y.c.c.c.c.c.c.c.c.c.c.c.c.c.c.c.c.c.c.L.X X X X X X X X X X X X X X X X X X -       ",
"                  : : : : : #             + T.Z.c.c.c.c.c.c.c.c.c.c.c.c.c.c.v.R.b.X X X X X X X X X X X X X X X X X X .         ",
"                  J : : : : q           + X X X E.R.Z.W.c.c.c.c.c.c.N.Z.R.Q.X X X X X X X X X X X . . $ X X X X X X X r         ",
"                  # : : - q #         + X X X X X X X X X X X X X X X X X X X X X X X X X X X X X : : : : : 8 X X X @ #         ",
"                    H #             + X X X X X X X X X X X X X X X X X X X X X X X X X X X X X . : : : : : % X X X +           ",
"                                  + X X X X X X X X X X X X X X X X X X X X X X X X X X X X X X . : : : : : . X X X H           ",
"                                r X X X X X X X X X X X X X X X X X X X X X X X X X X X X X X X 2 : : : : : . X X 1             ",
"                              H X X X X X X X X X X X X X X 5 < X X X X X X X X X X X X X X X X 8 : : : : : X X X r             ",
"                            # @ X X X X X X X X X X X X * 0 , , & X X X X X X X X X X X X X X X @ . . n 8 8 X X X #             ",
"                            + X X X X X X X X X X X X 4 , , , , !.X X X X X X X X X X X X X X X X X X X X X X X 1               ",
"                          q X X X X X X X X X X X X X 4 , , , , , * X X X X X X X X X X X X X X X X X X X X X X =               ",
"                        # @ X X X X X X X X X X X X X * , , , , , 4 X X X X X X X X X X X X X X X X X X X X X X H               ",
"                        = X X X X X X X X X X X X X X X 3 , , , , 4 X X X X X X X X X X X X X X X X X X X X X .                 ",
"                      # @ X X X X X X X X X X X X X X X & , , 0 * X X X X X X X X X X X X X X X X X X X X X X +                 ",
"                      9 X X X X X X X X X X X X X X X X X < 5 X X X X X X X X X X X X X X X X X X X X X X X X q                 ",
"                    o X X X X X X X X X X X X X X X X X X X X X X X X X X X X X X X X X X X X X X X X X X X .                   ",
"                    + X X X X X X X X X X X X X X X X X X X X X X X X X X X X X X X X X X X X X X X X X X X =                   "
};
