/* XPM */
static char *result[] = {
/* columns rows colors chars-per-pixel */
"64 64 106 2 ",
"   c #52917D",
".  c #559682",
"X  c #5B9784",
"o  c #579A85",
"O  c #589C87",
"+  c #599E89",
"@  c #619886",
"#  c #639C8C",
"$  c #689C8B",
"%  c #5CA28C",
"&  c #5EA790",
"*  c #5FA891",
"=  c #6EA596",
"-  c #62AD95",
";  c #71A495",
":  c #78A395",
">  c #7FA79A",
",  c #76A99B",
"<  c #7CAC9D",
"1  c #67B69D",
"2  c #68B79E",
"3  c #68B89F",
"4  c #7FAFA0",
"5  c #6ABBA2",
"6  c #6DC0A6",
"7  c #6FC4A9",
"8  c #77C6AE",
"9  c #78C7AE",
"0  c #7DCAB2",
"q  c #88B3A5",
"w  c #85B3A9",
"e  c #8AB8AE",
"r  c #91B4A9",
"t  c #9EB5AE",
"y  c #93BAAE",
"u  c #8EB9B0",
"i  c #9ABEB4",
"p  c #A5B9B3",
"a  c #81CBB3",
"s  c #8ACFBA",
"d  c #9DC5BE",
"f  c #93D2BE",
"g  c #A9C8BE",
"h  c #97D3C4",
"j  c #9CD6C3",
"k  c #A6CCC6",
"l  c #AACCC6",
"z  c #B2CEC6",
"x  c #A1D1C8",
"c  c #A5D9CC",
"v  c #AEDDCE",
"b  c #B5D1CB",
"n  c #BBD5CE",
"m  c #B4D6D3",
"M  c #B3DED7",
"N  c #BBD9D8",
"B  c #B7E1D4",
"V  c #B9E0DB",
"C  c #C1CDC9",
"Z  c #CCCCCC",
"A  c #CFD2D3",
"S  c #CADAD5",
"D  c #C1DBDC",
"F  c #D3D4D4",
"G  c #D3D7D9",
"H  c #D6DCDD",
"J  c #DADADA",
"K  c #C7E0DF",
"L  c #CBE1DF",
"P  c #C9E8DE",
"I  c #D3E3DE",
"U  c #D6DFE2",
"Y  c #CEE5E7",
"T  c #CDE7E9",
"R  c #DBE3E5",
"E  c #D2ECE4",
"W  c #D3E7EA",
"Q  c #DCE5E9",
"!  c #D5ECEE",
"~  c #DEEAEE",
"^  c #DBF0E9",
"/  c #CEE9F2",
"(  c #D5EAF3",
")  c #DBECF2",
"_  c #D4EFF9",
"`  c #DFF0F6",
"'  c #DAF5FF",
"]  c #E5E5E5",
"[  c #E3E7E9",
"{  c #E5EAEB",
"}  c #EBECEC",
"|  c #E5F2EE",
" . c #EAF2EF",
".. c #E1EEF3",
"X. c #E9EFF2",
"o. c #E2F2F7",
"O. c #ECF2F5",
"+. c #E3F5FB",
"@. c #EAF5F9",
"#. c #E7F9FF",
"$. c #EBFAFF",
"%. c #F3F3F3",
"&. c #F5F9F7",
"*. c #F0F6F9",
"=. c #F4FCFF",
"-. c #FFFFFF",
/* pixels */
"-.-.-.-.-.-.-.-.-.-.#.#.#.#.#.#.#.#.#.#.#.#.#.#.#.#.#.#.#.#.#.#.#.#.#.#.#.#.#.#.#.#.#.#.#.#.#.#.#.#.#.#.#.#.-.-.-.-.-.-.-.-.-.-.",
"-.-.-.-.-.-.-.-.-.=.#.#.#.#.#.#.#.#.#.#.#.#.#.#.#.#.#.#.#.#.#.#.#.#.#.#.#.#.#.#.#.#.#.#.#.#.#.#.#.#.#.#.#.$.-.-.-.-.-.-.-.-.-.-.",
"-.-.-.-.-.-.-.-.-.=.#.#.#.#.#.#.#.#.#.#.#.#.#.#.#.#.#.#.#.#.#.#.#.#.#.#.#.#.#.#.#.#.#.#.#.#.#.#.#.#.#.#.#.-.-.-.-.-.-.-.-.-.-.-.",
"-.-.-.-.-.-.-.-.-.#.#.#.#.#.#.#.#.#.#.#.#.#.#.#.#.#.#.$.$.#.#.#.#.#.#.#.#.#.#.#.#.#.+.#.#.#.#.#.#.#.#.#.=.-.-.-.-.-.-.-.-.-.-.-.",
"-.-.-.-.-.-.-.-.=.#.#.#.#.#.#.#.#.#.#.#.#.#.#.$.=.-.=.=.=.#.#.#.#.#.#.#.#.#.#.#.#.' ' +.#.#.#.#.#.#.#.#.-.-.-.-.-.-.-.-.-.-.-.-.",
"-.-.-.-.-.-.-.-.$.#.#.#.#.#.#.#.#.#.#.#.#.#.#.$.=.=.=.=.=.#.#.#.#.#.#.#.#.#.#.#.' _ ' ' ' #.#.#.#.#.#.=.-.-.-.-.-.-.-.-.-.-.-.-.",
"-.-.-.-.-.-.-.-.#.#.#.#.#.#.#.#.#.#.#.#.#.#.#.#.=.=.*.[ J G G G G G G U ~ #.#.+.' ' ' ' ' ' #.#.#.#.$.-.-.-.-.-.-.-.-.-.-.-.-.-.",
"-.-.-.-.-.-.-.=.#.#.#.#.#.#.#.#.#.#.#.#.#.#.#.#.{ H Z Z Z Z Z Z Z Z Z Z Z Z U ' ' ' ' ' ' ' #.#.#.#.-.-.-.-.-.-.-.-.-.-.-.-.-.-.",
"-.-.-.-.-.-.-.#.#.#.#.#.#.#.#.#.#.#.#.#.#.#...F Z Z Z R ] %.%.%.%.%.} ] F Z Z Z H _ ' ' ' #.#.#.#.-.-.-.-.-.-.-.-.-.-.-.-.-.-.-.",
"-.-.-.-.-.-.-.#.#.#.#.#.#.#.#.#.#.#.#.#.#.R Z Z F ] -.-.-.-.-.-.-.-.-.-.-.%.] Z Z A _ ' #.#.#.#.=.-.-.-.-.-.-.-.-.-.-.-.-.-.-.-.",
"-.-.-.-.-.-.=.#.#.#.#.#.#.#.#.#.#.#.#.#.U Z Z J -.-.%.] F Z Z Z Z Z Z J %.&.-.%.A Z Z ` #.#.#.$.-.-.-.-.-.-.-.-.-.-.-.-.-.-.-.-.",
"-.-.-.-.-.-.#.#.#.#.#.#.#.#.#.#.#.#.#.~ Z Z } -.-.J Z Z Z Z Z Z Z Z Z Z Z F ] -.-.F Z S #.#.$.-.-.-.-.-.-.-.-.-.-.-.-.-.-.-.-.-.",
"-.-.-.-.-.-.#.#.#.#.#.#.#.#.#.#.#.#...Z Z ] -.%.F Z Z H ..#.#.#.#.#.+.[ G Z Z F &.&.A Z F $.-.-.-.-.-.-.-.-.-.-.-.-.-.-.-.-.-.-.",
"-.-.-.-.-.=.#.#.#.#.#.#.#.#.#.=.=.@.Z Z J -.-.F Z H +.#.#.#.#.#.#.#.#.#.#.o.A Z J -.%.A Z ] -.-.-.-.-.-.-.-.-.-.-.-.-.-.-.-.-.-.",
"-.-.-.-.-.#.#.#.#.#.#.#.#.#.#.=.=.] Z F -.&.F Z Q #.#.#.#.#.#.#.#.#.#.#.#.#.#.A Z J -.} Z Z -.-.-.-.-.-.-.-.=.=.-.-.-.-.-.-.-.-.",
"-.-.-.-.=.#.#.#.#.#.#.#.#.#.#.=.*.Z Z %.-.J Z H #.#.#.#.#.#.#.#.#.#.#.#.#.#.#.o.Z Z %.-.J Z J -.-.-.-.-.-.=.=.=.=.-.-.-.-.-.-.-.",
"-.-.-.-.#.#.#.#.#.#.#.#.#.#.#.=.R Z J -.} Z F +.#.#.#.#.#.#.#.#.#.#.#.#.#.#.#.#.R Z A &.&.Z Z -.-.-.-.-.-.=.=.=.=.=.-.-.-.-.-.-.",
"-.-.-.=.#.#.#.#.#.#.#.#.#.#.$.=.F Z } -.F Z Q #.#.#.#.#.#.#.#.#.#.#.#.#.#.#.#.$.-.F Z } -.F Z } -.-.-.-.=.=.=.=.=.=.-.-.-.-.-.-.",
"-.-.-.#.#.#.#.#.#.#.#.#.#.#.#.@.Z Z -.%.Z A #.#.#.#.#.#.#.#.#.#.#.#.#.#.#.#.=.-.-.} Z J -.] Z J -.-.-.-.=.=.=.=.-.=.-.-.-.-.-.-.",
"-.-.=.#.#.#.#.#.#.#.#.#.#.#.#.~ Z J -.] Z R #.#.#.#.#.#.#.#.#.#.#.#.#.#.*.-.-.-.-.-.Z Z -.%.Z F -.-.-.-.-.-.=.=.=.-.-.-.-.-.-.-.",
"-.-.#.#.#.#.#.#.#.#.#.#.#.#.#.R Z ] -.J Z ~ #.#.#.#.#.#.#.#.#.#.#.+.$.-.-.-.-.-.-.-.F Z } -.Z Z -.-.-.-.-.-.-.=.-.-.-.-.-.-.-.-.",
"-.=.#.#.#.#.#.#.#.#.#.#.#.#.#.R Z ] -.F Z ) #.#.#.#.#.#.#.#.#.#.=.-.-.-.-.-.-.-.-.-.J Z %.-.Z Z -.-.-.-.-.-.-.-.-.-.-.-.-.-.-.-.",
"=.#.#.#.#.#.#.#.#.#.#.#.#.#.#.R Z ] -.J Z ..#.#.#.#.#.#.#.#.=.-.-.-.-.-.-.-.-.-.-.-.J Z %.-.Z Z -.-.-.-.-.-.-.-.-.-.-.-.-.-.-.-.",
"#.#.#.#.#.#.#.#.#.#.#.#.#.#.#.R Z ] -.J Z ..#.#.#.#.#.=.=.-.-.-.-.-.-.-.-.-.-.-.-.-.J Z %.-.Z Z -.-.-.-.-.-.-.-.-.-.-.-.-.-.-.-.",
"#.#.#.#.#.#.#.#.#.#.#.#.#.#.#.R Z ] -.J Z ..#.#.$.=.-.-.-.-.-.-.-.-.-.-.-.-.-.-.-.-.J Z %.-.Z Z -.-.-.-.-.-.-.-.-.-.-.-.-.-.-.#.",
"#.#.#.#.#.#.#.#.#.#.#.#.#.#.#.Q Z ] -.F Z O.-.-.-.-.-.-.-.-.-.-.-.-.-.-.-.-.-.-.-.-.J Z %.-.Z Z =.-.-.-.-.-.-.-.-.-.-.-.-.-.$.#.",
"#.#.#.#.#.#.#.#.#.#.#.#.#.#.#.R Z ] -.J Z %.-.-.-.-.-.-.-.-.-.-.-.-.-.-.-.-.-.-.-.-.J Z } -.Z Z $.$.=.=.-.-.-.-.-.-.-.-.-.=.#.#.",
"#.#.#.#.#.#.#.#.#.#.#.#.#.#.#.Q Z ] -.F Z %.-.-.-.-.-.-.-.-.-.-.-.-.-.-.-.-.-.=.-.-.F Z %.-.Z Z =.$.$.$.-.-.-.-.-.-.-.-.=.#.#.#.",
"#.#.#.#.#.#.#.#.#.#.#.#.#.#.=.] Z ] -.J Z %.-.-.-.-.-.-.-.-.-.-.-.-.-.-.-.=.=.=.-.-.J Z %.-.Z Z $.$.$.=.-.-.-.-.-.-.-.$.#.#.#.#.",
"#.#.#.#.#.#.#.#.#.#.#.#.=.-.-.] Z ] -.J Z %.C g < < < X                 ; < i n L =.J Z %.-.Z Z $.=.=.=.-.-.-.-.-.-.$.#.#.#.#.#.",
"#.#.#.#.#.#.#.#.#.#.$.-.-.-.-.] Z ] -.C >                                           $ t } -.Z Z $.$.$.-.-.-.-.-.-.#.#.#.#.#.#.#.",
"#.#.#.#.#.#.#.#.#.=.-.-.-.-.-.] Z H -.<       % - 1 1 5 7 7 7 7 7 7 7 7 5 1 - - O       I -.p Z =.=.=.-.-.-.-.=.#.#.#.#.#.#.#.#.",
"#.#.#.#.#.#.#.#.-.-. .y > , q q @ g -.4 * 2 7 7 7 6 3 5 3 3 5 3 2 5 2 5 5 5 5 7 7 6 1 % I -.  : g < ; q E -.=.#.#.#.#.#.#.#.#.#.",
"#.#.#.#.#.#.#.-.-.&.X             g -.f 7 7 6 - % o o o o o o o o o o o . o & - 5 7 7 7 ^ -.              k #.#.#.#.#.#.#.#.#.#.",
"#.#.#.#.#.$.-.-.-.y   + 1 3 3 % 1 B -.f 7 - o o o o o o o o o o o o o o o o o o o & 7 7 ^ -.6 * % - 5 1     ! #.#.#.#.#.#.#.#.#.",
"#.#.#.#.$.-.-.-.|     1 7 7 7 7 7 B -.f 7 1 o o o o o o o o o o o o o o o o o o o * 7 7 ^ -.7 7 7 7 7 7 %   e #.#.#.#.#.#.#.#.#.",
"#.#.#.$.-.-.-.-.D   o 7 7 7 7 7 7 B -.f 7 7 - o o o o o o o o o o o o o o o o o & 6 7 7 ^ -.7 7 7 7 7 7 1   , #.#.#.#.#.#.#.#.#.",
"#.#.#.-.-.-.-.=.L   + 7 7 7 7 7 7 c -.| 9 7 7 6 * o o o o o o o o o o o o + - 1 7 7 7 f &.&.7 7 7 7 7 7 3   , #.#.#.#.#.#.#.#.#.",
"#.#.-.-.-.-.-.$.$.X   3 7 7 7 7 7 7 P -.&.B a 7 7 7 7 1 - - - - - 1 - 1 7 7 7 7 7 j P -.&.s 7 7 7 7 7 7 %   e #.#.#.#.#.#.#.#.#.",
"#.=.-.-.-.-.$.$.@.    1 7 7 7 7 7 7 7 c O.-.-.-.E v f 0 7 7 8 7 7 6 7 s v B E | -.-.&.E a 7 7 7 7 7 7 7 *   e #.#.#.#.#.#.#.#.#.",
"$.-.-.-.-.-.-.$.P   . 5 5 7 7 7 7 7 7 7 7 s B E -.-.-.-.-.-.-.-.-.-.-.-.-.-.-.-.E c 9 7 7 7 7 7 7 7 8 5 1   = #.#.#.#.#.#.#.#.#.",
"-.-.-.-.-.-.-.-.z   + 1 3 3 5 7 7 7 7 7 7 7 7 7 8 c B E ^ ~ ^ ^ ^ ^ ^ ^ ^ B j 7 7 7 7 7 7 7 7 7 5 3 1 2 2     #.#.#.#.#.#.#.#.#.",
"-.-.-.-.-.-.-.-.g   % 1 1 1 1 1 1 2 3 5 6 6 7 7 7 7 7 7 7 7 7 7 7 7 7 7 7 7 7 7 8 6 6 6 5 3 3 1 1 3 1 1 1     #.#.#.#.#.#.#.#.-.",
"-.-.-.-.-.-.-.-.z     1 1 1 1 1 1 1 2 2 1 1 1 1 1 5 5 5 3 3 3 3 2 5 3 5 3 5 1 1 1 1 1 1 1 1 1 1 1 1 1 2 %   X #.#.#.#.#.#.#.$.-.",
"-.-.-.-.-.-.-.-.*.;     * 1 1 1 1 2 1 1 2 1 1 1 1 1 1 1 1 1 1 1 1 1 1 1 1 1 1 1 1 1 1 1 1 1 1 1 1 1 1 %     d #.#.#.#.#.#.#.-.-.",
"-.-.-.-.-.-.-.-.-.*.<       % 1 1 1 1 2 1 1 2 1 1 1 1 1 1 1 1 1 2 1 1 2 2 1 1 1 1 1 1 1 1 1 1 1 - +     X k #.#.#.#.#.#.#.=.-.-.",
"-.-.-.-.-.-.-.-.-.-.-.b ,     1 7 6 6 5 3 2 1 1 1 1 1 1 1 1 1 1 1 2 2 3 1 3 2 1 1 1 1 3 3 6 7 7 %     w Y #.#.#.#.#.#.#.#.-.-.-.",
"-.-.-.-.-.-.-.-.-.=.=.O. .z     6 7 7 7 7 7 7 6 6 7 5 6 5 5 5 5 5 5 5 5 5 5 6 6 6 7 7 7 7 7 7 1   # W ) ) #.#.#.#.#.#.#.=.-.-.-.",
"-.-.-.-.-.-.-.-.-.=.=.O.X.X.,   % 8 7 7 7 7 7 7 7 7 7 7 7 7 7 7 7 7 7 7 7 7 7 7 7 7 7 6 7 6 5 o   k ) ) ) +.#.#.#.#.#.#.-.-.-.-.",
"-.-.-.-.-.-.-.-.-.-.=.@.X.X.[ ;   % 7 7 7 7 7 7 7 7 7 7 7 7 7 7 7 7 7 7 7 7 7 7 7 7 7 8 7 1 .   , ) ) ) ) #.#.#.#.#.#.=.-.-.-.-.",
"-.-.-.-.-.-.-.-.-.-.=.@.X.} %.} y   . 3 7 8 7 7 7 7 7 7 7 7 7 7 7 7 7 7 7 7 7 7 7 7 7 5 %   # l ) X.X.X.X.=.=.#.#.#.#.-.-.-.-.-.",
"-.-.-.-.-.-.-.-.-.-.-.-.%.O.%.%. .S d , % 5 7 7 7 7 7 7 7 7 7 7 7 7 7 7 7 7 7 7 7 7 1 = u N ) ) ..X.X.X.=.=.#.#.#.#.=.-.-.-.-.-.",
"-.-.-.-.-.-.-.-.-.-.-.-.-.%.%.%.O.{ ) ) ) N x s 8 7 7 7 7 7 7 7 7 7 7 7 7 7 7 0 h m W ) ) ) ) ) ) X.X.*.-.=.#.#.#.#.-.-.-.-.-.-.",
"-.-.-.-.-.-.-.-.-.-.-.-.-.-.&.%.O.) ) ) ) ) ) ) ) ! T M c c c c c c c c V ! ( ) ) ) ) ) ) ) ) ) ..O.=.=.=.=.#.#.#.#.-.-.-.-.-.-.",
"-.-.-.-.-.-.-.-.-.-.-.-.-.-.-.-.+.) ) ) ) ) ) ) ) ) ) ) ) ) ) ( ) ) ) ) ) ) ) ) ) ) ) ) ) ) ) o.$.=.=.=.=.=.#.#.#.=.-.-.-.-.-.-.",
"-.-.-.-.-.-.-.-.-.-.-.-.-.-.-.#.#.#.#.` ) ) ) ) ) ) ) ) ) ( / / ( ) ) ) ) ) ) ) ) ) ) ) ) +.#.#.#.#.$.*.$.=.#.#.#.-.-.-.-.-.-.-.",
"-.-.-.-.-.-.-.-.-.-.-.-.-.-.$.#.#.#.#.#.#.+.` ` ) ) ) ( / / / / ( ) ) ) ) ) ) ) o.o.o.#.#.#.#.#.#.#.#.#.#.#.#.#.#.-.-.-.-.-.-.-.",
"-.-.-.-.-.-.-.-.-.-.-.-.-.-.#.#.#.#.#.#.#.#.#.#.#.#.+.' _ _ _ _ _ ` +.+.o.+.+.#.#.#.#.#.#.#.#.#.#.#.#.#.#.#.#.#.=.-.-.-.-.-.-.-.",
"-.-.-.-.-.-.-.-.-.-.-.-.-.#.#.#.#.#.#.#.#.#.#.#.#.#.#.+.' ' ' ' ' ' #.#.#.#.#.#.#.#.#.#.#.#.#.#.#.#.#.#.#.#.#.#.-.-.-.-.-.-.-.-.",
"-.-.-.-.-.-.-.-.-.-.-.-.=.#.#.#.#.#.#.#.#.#.#.#.#.#.#.#.' ' ' ' ' ' #.#.#.#.#.#.#.#.#.#.#.#.#.#.#.#.#.#.#.#.#.#.-.-.-.-.-.-.-.-.",
"-.-.-.-.-.-.-.-.-.-.-.-.#.#.#.#.#.#.#.#.#.#.#.#.#.#.#.#.#.' ' ' #.#.#.#.#.#.#.#.#.#.#.#.#.#.#.#.#.#.#.#.#.#.#.$.-.-.-.-.-.-.-.-.",
"-.-.-.-.-.-.-.-.-.-.-.$.#.#.#.#.#.#.#.#.#.#.#.#.#.#.#.#.#.+.#.#.#.#.#.#.#.#.#.#.#.#.#.#.#.#.#.#.#.#.#.#.#.#.#.-.-.-.-.-.-.-.-.-.",
"-.-.-.-.-.-.-.-.-.-.-.+.#.#.#.#.#.#.#.#.#.#.#.#.#.#.#.#.#.#.#.#.#.#.#.#.#.#.#.#.#.#.#.#.#.#.#.#.#.#.#.#.#.#.#.-.-.-.-.-.-.-.-.-.",
"-.-.-.-.-.-.-.-.-.-.=.#.#.#.#.#.#.#.#.#.#.#.#.#.#.#.#.#.#.#.#.#.#.#.#.#.#.#.#.#.#.#.#.#.#.#.#.#.#.#.#.#.#.#.=.-.-.-.-.-.-.-.-.-."
};
