/* XPM */
static char *result[] = {
/* columns rows colors chars-per-pixel */
"64 64 45 1 ",
"  c #D9F5FF",
". c #DAF5FF",
"X c #DCF6FF",
"o c #DDF6FF",
"O c #DEF6FF",
"+ c #DFF6FF",
"@ c #E0F7FF",
"# c #E1F7FF",
"$ c #E2F7FF",
"% c #E3F8FF",
"& c #E4F8FF",
"* c #E5F8FF",
"= c #E6F8FF",
"- c #E7F9FF",
"; c #E8F9FF",
": c #E9F9FF",
"> c #EAF9FF",
", c #EBF9FF",
"< c #EBFAFF",
"1 c #ECFAFF",
"2 c #EDFAFF",
"3 c #EEFAFF",
"4 c #EFFAFF",
"5 c #F0FAFF",
"6 c #F1FAFF",
"7 c #F0FBFF",
"8 c #F1FBFF",
"9 c #F2FBFF",
"0 c #F3FBFF",
"q c #F4FBFF",
"w c #F3FCFF",
"e c #F4FCFF",
"r c #F5FCFF",
"t c #F6FCFF",
"y c #F7FCFF",
"u c #F7FDFF",
"i c #F8FDFF",
"p c #F9FDFF",
"a c #FAFDFF",
"s c #FBFDFF",
"d c #FBFEFF",
"f c #FCFEFF",
"g c #FDFEFF",
"h c #FEFEFF",
"j c white",
/* pixels */
"jjjjjjjjjj>-------------------------------------------fjjjjjjjjj",
"jjjjjjjjju-------------------------------------------7jjjjjjjjjj",
"jjjjjjjjj7------------------------------------------;gjjjjjjjjjj",
"jjjjjjjjg-----------------:11------------%*---------wjjjjjjjjjjj",
"jjjjjjjjt--------------19rrrq-----------*  #------->gjjjjjjjjjjj",
"jjjjjjjj<--------------,rrrrr-----------X   O=-----ujjjjjjjjjjjj",
"jjjjjjjf--------------->rrrrr:---------@     .=---3jjjjjjjjjjjjj",
"jjjjjjj8----------------rrrrr>--------%      O---;gjjjjjjjjjjjjj",
"jjjjjjj>----------------qrrrr3--------=+    .=---pjjjjjjjjjjjjjj",
"jjjjjjf-----------------13>:------------$   &---ejjjjjjjjjjjjjjj",
"jjjjjje----------------------------------*X@---7jjjjjjjjjjjjjjjj",
"jjjjjj<---------------------------------------3gjjjjjjjjjjjjjjjj",
"jjjjjf---------------------------------------<gjjjjjjjjjjjjjjjjj",
"jjjjj8---------8r8831-----------------------2gjjjjjjjjggjjjjjjjj",
"jjjjg;---------qrrrr8----------------------7jjjjjjjjjgrrgjjjjjjj",
"jjjjt----------rrrrr3---------------------wjjjjjjjjjhtrrrsjjjjjj",
"jjjj>----------rrrrr3-------------------;pjjjjjjjjjhtrrrrrsjjjjj",
"jjjt---------->rrrrr1------------------2gjjjjjjjjjjarrrrrrijjjjj",
"jjj>----------;33488:----------------;ejjjjjjjjjjjjjirrrrijjjjjj",
"jjw---------------------------------7gjjjjjjjjjjjjjjjarrthjjjjjj",
"jf;-------------------------------3ajjjjjjjjjjjjjjjjjjsthjjjjjjj",
"j2------------------------------7ajjjjjjjjjjjjjjjjjjjjjjjjjjjjjj",
"e---------------------------->8fjjjjjjjjjjjjjjjjjjjjjjjjjjjjjjjj",
";--------------------------7ujjjjjjjjjjjjjjjjjjjjjjjjjjjjjjjjjja",
"-----------------------;3tgjjjjjjjjjjjjjjjjjjjjjjjjjjjjjjjjjjjg>",
"-------------------->eajjjjjjjjjjjjjjjjjjjjjjjg4qajjjjjjjjjjjj2-",
"-----------------;8ajjjjjjjjjjjjjjjjjjjjjjjjjji3335ygjjjjjjjj7--",
"--------------->tgjjjjjjjjjjjjjjjjjjjjayjjjjjj933333gjjjjjjj7---",
"------------->tjjjjjjjjjjjjjjjjjjjjjhirrijjjjf333330jjjjjjj7----",
"------------wgjjjjjjjjjjjjjjjjjjjjjgtrrrrsjjjt33333ijjjjjg2-----",
"----------2fjjjjjjjjjjjjjjjjjjjjjjjyrrrrrrfjjdq4333gjjjjf<------",
"---------ejjjjjjjjjjjjjjjjjjjjjjjjjgrrrrrrsjjjjji90jjjje;-------",
"-------;pjjjjjjjjjjjjjjjjjjjjjjjjjjjfrrrrgjjjjjjjjjjjg8---------",
"------<gjjjjjjjjjjjjjjjjjjjjjjjjjjjjjsrthjjjjjjjjjjju>----------",
"-----2gjjjjjjjjjjjjjjjjjjjjjjjjjjjjjjjsjjjjjjjjjjja<------------",
"----2jjjdpjjjjjjjjjjjjjjjjjjjjjjjjjjjjjjjjjjjjjjf3--------------",
"---<gjjg630gjjjjjjjjjjjjjjjjjjjjjjjjjjjjjjjjjja3----------------",
"-->gjjjq3334pjjjjjjjjjjjjjjjjjjjjjjjjjjjjjjjt2------------------",
"--ajjji333333pjjjjjjjjjjjjjjjjjjjjjjjjjjju7;--------------------",
"-wjjjg4333330jjjjjjjjjjjjjjjjjjjjjjjjfe7;-----------------------",
"3jjjjjd63334gjjjjjjjjjjjjjjjjjjjjjp8>---------------------------",
"gjjjjjjgq33ajjjjjjjjjjjjjjjjjjjge>----------------------------->",
"jjjjjjjjjpyjjjjjjjjjjjjjjjjjjg8;-------------------------------p",
"jjjjjjjjjjjjjjjjjjjjjjjjjjjjw---------------------------------3j",
"jjjjjjjjjjjjjjjjjjjjjjjjjja2---------------------------------;gj",
"jjjjjjjjjjjjsgjjjjjjjjjjgw-----------------------------------ejj",
"jjjjjjjjjfirrijjjjjjjjja<----------------------------------->jjj",
"jjjjjjjjsrrrrrjjjjjjjjt-------------------------------------tjjj",
"jjjjjjjjjrrrrrgjjjjjj7------------------------------------->jjjj",
"jjjjjjjjjirrrrpjjjjj7---------------------------->>:-------ejjjj",
"jjjjjjjjjgrrtpgjjjj7-----------------------------rrrrr3---;gjjjj",
"jjjjjjjjjjagjjjjjj7----------------------------->rrrrr1---7jjjjj",
"jjjjjjjjjjjjjjjjj7------------------------------>rrrrr>---ajjjjj",
"jjjjjjjjjjjjjjjje-------------------------------,rrrrr>--<jjjjjj",
"jjjjjjjjjjjjjjja--------------=#----------------3rrrrr---ejjjjjj",
"jjjjjjjjjjjjjjg;------------*+  %---------------;>>233---gjjjjjj",
"jjjjjjjjjjjjjj7------------O    o-----------------------<jjjjjjj",
"jjjjjjjjjjjjjp-------------O     *----------------------wjjjjjjj",
"jjjjjjjjjjjjg;-------------*     O----------------------ajjjjjjj",
"jjjjjjjjjjjjw---------------X    O--------------------->jjjjjjjj",
"jjjjjjjjjjjg;---------------%  +*----------------------7jjjjjjjj",
"jjjjjjjjjjj8-----------------#=------------------------pjjjjjjjj",
"jjjjjjjjjjf------------------------------------------->jjjjjjjjj",
"jjjjjjjjjj7-------------------------------------------wjjjjjjjjj"
};
