/* XPM */
static char *result[] = {
/* columns rows colors chars-per-pixel */
"64 64 112 2 ",
"   c white",
".  c #EAF9FF",
"X  c #E7F9FF",
"o  c #FCFEFF",
"O  c #F7FDFF",
"+  c #F0FBFF",
"@  c #E8F9FF",
"#  c #FDFEFF",
"$  c #E9F9FF",
"%  c #ECFAFF",
"&  c #E3F8FF",
"*  c #E5F8FF",
"=  c #F3FCFF",
"-  c #F6FCFF",
";  c #F2FBFF",
":  c #F5FCFF",
">  c #F4FBFF",
",  c #D9F5FF",
"<  c #E1F7FF",
"1  c #EBFAFF",
"2  c #EBF9FF",
"3  c #DCF6FF",
"4  c #DEF6FF",
"5  c #E6F8FF",
"6  c #E0F7FF",
"7  c #DAF5FF",
"8  c #EEFAFF",
"9  c #F1FBFF",
"0  c #DFF6FF",
"q  c #F9FDFF",
"w  c #E2F7FF",
"e  c #E4F8FF",
"r  c #F4FCFF",
"t  c #EDFAFF",
"y  c #CFF3F9",
"u  c #B8ECF4",
"i  c #A6E7F0",
"p  c #A1E4EF",
"a  c #ACE9F1",
"s  c #D5F4FB",
"d  c #FEFEFF",
"f  c #FBFDFF",
"g  c #C4EFF7",
"h  c #8BE1EB",
"j  c #90E1EB",
"k  c #A7E7F0",
"l  c #D6F4F8",
"z  c #E5F8FD",
"x  c #BEEEF5",
"c  c #98E1EB",
"v  c #CBF1F5",
"b  c #FAFDFF",
"n  c #F8FDFF",
"m  c #EFFAFF",
"M  c #D0F2F8",
"N  c #90E1EB",
"B  c #DAF5F8",
"V  c #E0F7FD",
"C  c #BDEDF3",
"Z  c #F7FDFD",
"A  c #9BE4ED",
"S  c #9FE5ED",
"D  c #E9F9FB",
"F  c #8CE1EB",
"G  c #90E2EB",
"H  c #91E1EB",
"J  c #A0E6ED",
"K  c #A2E7EE",
"L  c #99E4EC",
"P  c #9FE6ED",
"I  c #B5EBF1",
"U  c #D3F3F7",
"Y  c #DBF6FC",
"T  c #9CE5ED",
"R  c #8DE1EB",
"E  c #95E3EC",
"W  c #96E4EC",
"Q  c #92E2EB",
"!  c #91E1EB",
"~  c #F0FBFC",
"^  c #93E3EC",
"/  c #70B5BE",
"(  c #639FA7",
")  c #6DB0B8",
"_  c #87DBE5",
"`  c #CCF1F7",
"'  c #7AC5CE",
"]  c #568A91",
"[  c #8FE2EB",
"{  c #AEE9F0",
"}  c #5C949C",
"|  c #84D6DF",
" . c #7DCBD4",
".. c #598F96",
"X. c #81D0DA",
"o. c #DEF6F9",
"O. c #BDEDF4",
"+. c #5F9AA1",
"@. c #BCEDF4",
"#. c #FBFEFF",
"$. c #F1FAFF",
"%. c #C2EEF5",
"&. c #D9F4F9",
"*. c #E1F7F9",
"=. c #F0FBFD",
"-. c #9DE4ED",
";. c #EEFAFD",
":. c #B1EAF1",
">. c #DAF5F9",
",. c #B4EBF1",
"<. c #B2EAF3",
"1. c #DDF6FF",
/* pixels */
"                    . X X X X X X X X X X X X X X X X X X X X X X X X X X X X X X X X X X X X X X X X X X X o                   ",
"                  O X X X X X X X X X X X X X X X X X X X X X X X X X X X X X X X X X X X X X X X X X X X +                     ",
"                  + X X X X X X X X X X X X X X X X X X X X X X X X X X X X X X X X X X X X X X X X X X @ #                     ",
"                # X X X X X X X X X X X X X X X X X $ % % X X X X X X X X X X X X & * X X X X X X X X X =                       ",
"                - X X X X X X X X X X X X X X % ; : : : > X X X X X X X X X X X * , , < X X X X X X X . #                       ",
"                1 X X X X X X X X X X X X X X 2 : : : : : X X X X X X X X X X X 3 , , , 4 5 X X X X X O                         ",
"              o X X X X X X X X X X X X X X X . : : : : : $ X X X X X X X X X 6 , , , , , 7 5 X X X 8                           ",
"              9 X X X X X X X X X X X X X X X X : : : : : . X X X X X X X X & , , , , , , 4 X X X @ #                           ",
"              . X X X X X X X X X X X X X X X X > : : : : 8 X X X X X X X X 5 0 , , , , 7 5 X X X q                             ",
"            o X X X X X X X X X X X X X X X X X % 8 . $ X X X X X X X X X X X X w , , , e X X X r                               ",
"            r X X X X X X X X X X X X X X X X X X X X X X X X X X X X X X X X X X * 3 6 X X X +                                 ",
"            1 X X X X X X X X X X X X X X X X X X X X X X X X X X X X X X X X X X X X X X X 8 #                                 ",
"          o X X X X X X X X X X X X X X X X X X X X X X X X X X X X X X X X X X X X X X X 1 #                                   ",
"          9 X X X X X X X X X 9 : 9 9 8 % X X X X X X X X X X X X X X X X X X X X X X X t #                 # #                 ",
"        # @ X X X X X X X X X > : : : : 9 X X X X X X X X X X X X X X X X X X X X X X +                   # : : #               ",
"        - X X X X X X X X X X : : : : : 8 X X X X X y u i p p p p p p p a u s X X X =                   d - : : : f             ",
"        . X X X X X X X X X X : : : : : 8 X X g i h h h h h h h h h h h h h h j k l                   d - : : : : : f           ",
"      - X X X X X X X X X X . : : : : : z x j h h h h h h h h h h h h h h h h h h h c v               b : : : : : : n           ",
"      . X X X X X X X X X X @ 8 8 m 9 M N h h h h h h h h h h h h h h h h h h h h h h h c B             n : : : : n             ",
"    = X X X X X X X X X X X X X X V p h h h h h h h h h h h h h h h h h h h h h h h h h h h C Z           b : : - d             ",
"  o @ X X X X X X X X X X X X X s A h h h h h h h h h h h h h h h h h h h h h h h h h h h h h S D           f - d               ",
"  t X X X X X X X X X X X X X s j h h h h h h h h h h h h h h h h F G G G F h h h h h h h h h h H D                             ",
"r X X X X X X X X X X X X X V A h h h h h h h h h h h h h h h h F J K K K K G h h h h h h h h h h S Z                           ",
"@ X X X X X X X X X X X X V A h h h h h h h h h h h h h h h h h L K K K K K P h h h h h h h h h h h S Z                       b ",
"X X X X X X X X X X X X X a h h h h h h h h h h h h h h h h h h K K K K K K K G h h h h h h h h h h h I                     # . ",
"X X X X X X X X X X X X g h h h h h h h h h h h h h h h h h h h K K K K K K K G h h h h h h h h h h h h U                   t X ",
"X X X X X X X X X X X Y j h h h h h h h h h h h h h h h h h h h T K K K K K J F h h R E W Q h h h h h h ! ~               + X X ",
"X X X X X X X X X X X a h h h h h h h h h h h h h h h h h h h h G K K K K K W h h ^ K K K J R h h h h h h I             + X X X ",
"X X X X X X X X X X Y h h h h h h h h h h h h h h h h h h h h h h G T T T Q h h h K K K K K W h h h h h h h ~         + X X X X ",
"X X X X X X X X X X a h h h h h h h h h h h h h h h h h h h h h h h h h h h h h h J K K K K W h h h h h h h I     # t X X X X X ",
"X X X X X X X X X V h h h h h h h / ( ( ( ) _ h h h h h h h h h h h h h h h h h h ^ K K K J R h h h h h h h h Z o 1 X X X X X X ",
"X X X X X X X X X ` h h h h h h ' ] ] ] ] ] ) h h h h h h h h h h h h h h h h h h h [ W W F h h h h h h h h h ` @ X X X X X X X ",
"X X X X X X X @ q { h h h h h h } ] ] ] ] ] ] | h h h h h h h h h h h h h h h h h h h h h h h h h h h h h h h i X X X X X X X X ",
"X X X X X X 1 #   H h h h h h h ] ] ] ] ] ] ]  .h h h h h h h h h h h h h h h h h h h h h h h h h h h h h h h j X X X X X X X X ",
"X X X X X t #   D h h h h h h h ..] ] ] ] ] ] X.h h h h h h h h h h h h h h h h h h h h h h h h h h h h h h h h s X X X X X X X ",
"X X X X t       o.h h h h h h h / ] ] ] ] ] ( h h h h h h h h h h h h h h h h h h h h h h h h h h h h h h h h h y X X X X X X X ",
"X X X 1 #     # O.h h h h h h h _ ( ] ] ] +.X.h h h h h h h h h h h h h h h h h h h h h h h h h h h h h h h h h u X X X X X X X ",
"X X . #       > @.h h h h h h h h h  . . .h h h h h h h h h h h h h h h h h h h h h h h h h h h h h h h h h h h u X X X X X X X ",
"X X b       n 8 @.h h h h h h h h h h h h h h h h h h h h h h h h h h h h h h h h h h h h h h h h h h h h h h h u X X X X X X X ",
"X =       # m 8 @.h h h h h h h h h h h h h h h h h h h h h h h h h h h h h h h h h h h h h h h h h h h h h h h u X X X X X X X ",
"8           #.$.%.h h h h h h h h h h h h h h h h h h h h h h h h h h h h h h h h h h h h h h h h h h h h h h h x X X X X X X X ",
"#             # &.h h h h h h h h h h h h h h h h h h h h h h h h h h h h h h h h h h h h h h h h h h h h h h h y X X X X X X . ",
"                  h h h h h h h h h h h h h h h h h h h h h h h h h h h h h h h h h h h h h h h h h h h h h h h X X X X X X X q ",
"                  { h h h h h h h h h h h h h h h h h h h h h h h h h h h h h h h h h h h h h h h h h h h h h i X X X X X X 8   ",
"                  *.h h h h h h h h h h h h h h h h h h h h h h h h h h h h h h h h h h h h h h h h h h h h h g X X X X X @ #   ",
"                    { h h h h h h h h h h h h h h h h h h h h h h h h h h h h h h h h h h h h h h h h h h h p X X X X X X r     ",
"                  o =.-.h h h h h h h h h h h h h h h h h h h h h h h h h h h h h h h h h h h h h h h h h j s X X X X X .       ",
"                f : : ;.:.h h h h h h h h h h h h h h h h h h h h h h h h h h h h h h h h h h h h h h h j s X X X X X X -       ",
"                  : : : : >.,.h h h h h h h h h h h h h h h h h h h h h h h h h h h h h h h h h h h j <.V X X X X X X .         ",
"                  n : : : : q           + X X X X X X X X X X X X X X X X X X X X X X X X X X X X . . $ X X X X X X X r         ",
"                  # : : - q #         + X X X X X X X X X X X X X X X X X X X X X X X X X X X X X : : : : : 8 X X X @ #         ",
"                    b #             + X X X X X X X X X X X X X X X X X X X X X X X X X X X X X . : : : : : % X X X +           ",
"                                  + X X X X X X X X X X X X X X X X X X X X X X X X X X X X X X . : : : : : . X X X b           ",
"                                r X X X X X X X X X X X X X X X X X X X X X X X X X X X X X X X 2 : : : : : . X X 1             ",
"                              b X X X X X X X X X X X X X X 5 < X X X X X X X X X X X X X X X X 8 : : : : : X X X r             ",
"                            # @ X X X X X X X X X X X X * 0 , , & X X X X X X X X X X X X X X X @ . . t 8 8 X X X #             ",
"                            + X X X X X X X X X X X X 4 , , , , 1.X X X X X X X X X X X X X X X X X X X X X X X 1               ",
"                          q X X X X X X X X X X X X X 4 , , , , , * X X X X X X X X X X X X X X X X X X X X X X =               ",
"                        # @ X X X X X X X X X X X X X * , , , , , 4 X X X X X X X X X X X X X X X X X X X X X X b               ",
"                        = X X X X X X X X X X X X X X X 3 , , , , 4 X X X X X X X X X X X X X X X X X X X X X .                 ",
"                      # @ X X X X X X X X X X X X X X X & , , 0 * X X X X X X X X X X X X X X X X X X X X X X +                 ",
"                      9 X X X X X X X X X X X X X X X X X < 5 X X X X X X X X X X X X X X X X X X X X X X X X q                 ",
"                    o X X X X X X X X X X X X X X X X X X X X X X X X X X X X X X X X X X X X X X X X X X X .                   ",
"                    + X X X X X X X X X X X X X X X X X X X X X X X X X X X X X X X X X X X X X X X X X X X =                   "
};
