/* XPM */
static char *result[] = {
/* columns rows colors chars-per-pixel */
"64 64 178 2 ",
"   c #465914",
".  c #495C17",
"X  c #495C1A",
"o  c #4D611A",
"O  c #51661C",
"+  c #556A1D",
"@  c #596E1F",
"#  c #5A701F",
"$  c #685623",
"%  c #7F5334",
"&  c #536625",
"*  c #566A22",
"=  c #596E24",
"-  c #56692A",
";  c #596B2C",
":  c #55672B",
">  c #5D7321",
",  c #5D712C",
"<  c #5F7231",
"1  c #5F7339",
"2  c #636F24",
"3  c #607723",
"4  c #647B25",
"5  c #60732F",
"6  c #667D2A",
"7  c #627434",
"8  c #62743C",
"9  c #6B7D3F",
"0  c #647936",
"q  c #7C7932",
"w  c #657642",
"e  c #667941",
"r  c #6A7E42",
"t  c #6D7D4B",
"y  c #844930",
"u  c #8F5F35",
"i  c #8B523A",
"p  c #98573C",
"a  c #935338",
"s  c #826E30",
"d  c #95613C",
"f  c #9D5D41",
"g  c #A55F42",
"h  c #9A7D40",
"j  c #9A6D59",
"k  c #A66042",
"l  c #A86144",
"z  c #AE6648",
"x  c #A86A4B",
"c  c #B06749",
"v  c #B46D4D",
"b  c #BE6F4F",
"n  c #A37447",
"m  c #A56C55",
"M  c #BE7253",
"N  c #AA7B68",
"B  c #C37554",
"V  c #CB7957",
"C  c #CA7A59",
"Z  c #C17E54",
"A  c #D37E5C",
"S  c #678027",
"D  c #688127",
"F  c #6C852B",
"G  c #6F892D",
"H  c #718B2E",
"J  c #76912F",
"K  c #758E32",
"L  c #7B8A34",
"P  c #769132",
"I  c #7A9533",
"U  c #7E9A35",
"Y  c #6E814D",
"T  c #6B8042",
"R  c #718244",
"E  c #72834B",
"W  c #738942",
"Q  c #7F974D",
"!  c #748452",
"~  c #7A8A54",
"^  c #758658",
"/  c #7C8F5B",
"(  c #7C8F64",
")  c #7E9263",
"_  c #838338",
"`  c #819D36",
"'  c #87973A",
"]  c #91913E",
"[  c #83A037",
"{  c #85A238",
"}  c #8CAB3C",
"|  c #9D8A44",
" . c #88895E",
".. c #82905D",
"X. c #B3804E",
"o. c #828F61",
"O. c #839364",
"+. c #84966D",
"@. c #8B976B",
"#. c #8D9A6B",
"$. c #889464",
"%. c #899B76",
"&. c #929C75",
"*. c #AD806C",
"=. c #B28C7B",
"-. c #8CA076",
";. c #96A277",
":. c #D7825E",
">. c #DA835F",
",. c #DC8560",
"<. c #E58964",
"1. c #E98C66",
"2. c #E08662",
"3. c #B49182",
"4. c #92A482",
"5. c #9FAA81",
"6. c #99A787",
"7. c #9FB192",
"8. c #A3AD88",
"9. c #BBA398",
"0. c #AEB796",
"q. c #A3B59B",
"w. c #A7BB98",
"e. c #A2B494",
"r. c #B3BA9E",
"t. c #B9A9A1",
"y. c #A7B9A1",
"u. c #ACBEA7",
"i. c #BFB9B4",
"p. c #C0ABA2",
"a. c #C7BDB8",
"s. c #C0BBB5",
"d. c #B3C2AD",
"f. c #BBC3AC",
"g. c #BAC1A6",
"h. c #B6C9B8",
"j. c #BACCBC",
"k. c #B8C4B7",
"l. c #C0C7AF",
"z. c #C9CFB9",
"x. c #C3CCB5",
"c. c #CCD1BE",
"v. c #BFD1C5",
"b. c #CBCBC9",
"n. c #C9C5C0",
"m. c #C1D3C6",
"M. c #C7D9CF",
"N. c #C3D5CB",
"B. c #D1D6C4",
"V. c #D5DBCB",
"C. c #D9DDCF",
"Z. c #C6D8D0",
"A. c #CBDDD7",
"S. c #D4D6D6",
"D. c #CFE1DB",
"F. c #D2E2DB",
"G. c #DDE0D3",
"H. c #D3E5E2",
"J. c #DDE7EA",
"K. c #D7E9E9",
"L. c #DAECEC",
"P. c #DFEEF0",
"I. c #DFF1F3",
"U. c #DAF5FF",
"Y. c #ECEEE9",
"T. c #EAEDE4",
"R. c #ECF1ED",
"E. c #F2F3EE",
"W. c #E1F2F6",
"Q. c #E3F6FC",
"!. c #E7F9FF",
"~. c #ECFAFF",
"^. c #F4F5F3",
"/. c #F7F8F5",
"(. c #F9F9F7",
"). c #F0F7F9",
"_. c #F4FCFF",
"`. c #FFFFFF",
/* pixels */
"`.`.`.`.`.`.`.`.`.`.!.!.!.!.!.!.!.!.!.!.!.!.!.!.!.!.!.!.!.!.!.!.!.!.!.!.!.!.!.!.!.!.!.!.!.!.!.!.!.!.!.!.!.!.`.`.`.`.`.`.`.`.`.`.",
"`.`.`.`.`.`.`.`.`._.!.!.!.!.!.!.!.!.!.!.!.!.!.!.!.!.!.!.!.!.!.!.!.!.!.!.!.!.!.!.!.!.!.!.!.!.!.!.!.!.!.!.!.~.`.`.`.`.`.`.`.`.`.`.",
"`.`.`.`.`.`.`.`.`._.!.!.!.!.!.!.!.!.!.~.!.!.!.!.!.!.!.!.!.!.!.!.!.!.!.!.!.!.!.~.!.!.!.!.!.!.!.!.!.!.!.!.!.`.`.`.`.`.`.`.`.`.`.`.",
"`.`.`.`.`.`.`.`.`.!.!.!.!.!.!.!.!.!.!.!.!.!.!.!.!.!.!.~.~.!.Q.H.m.D.Q.!.!.!.!.!.!.Q.!.!.!.!.!.!.!.!.!.!._.`.`.`.`.`.`.`.`.`.`.`.",
"`.`.`.`.`.`.`.`._.!.!.!.!.!.!.!.!.!.!.!.!.!.!.~._._._._._.L.w.Q K W y.Q.!.!.!.!.Q.U.U.U.!.!.!.!.!.!.!.~.`.`.`.`.`.`.`.`.`.`.`.`.",
"`.`.`.`.`.`.`.`.~.!.!.!.!.!.!.!.!.!.!.!.!.!.!.!._._._._.V.~ J } } U = 7.!.!.!.!.U.U.U.U.U.!.!.!.!.!.!._.`.`.`.`.`.`.`.`.`.`.`.`.",
"`.`.`.`.`.`.`.`.!.!.!.!.!.!.!.!.!.!.!.!.!.!.!.~._._._.R.~ > U { U U > - h.!.!.U.U.U.U.U.U.U.Q.!.!.!.~.`.`.`.`.`.`.`.`.`.`.`.`.`.",
"`.`.`.`.`.`.`._.!.!.!.!.!.!.!.!.!.!.!.!.!.!.!.!._._._.x.= J { { I I G o r F.!.U.U.U.U.U.U.Q.!.!.!.!.`.`.`.`.`.`.`.`.`.`.`.`.`.`.",
"`.`.`.`.`.`.`.!.!.!.!.!.!.!.!.!.!.!.!.!.!.!.!.!._._.Y./ D [ { { I I I > . y.!.U.U.U.U.U.U.!.!.!.!.`.`.`.`.`.`.`.`.`.`.`.`.`.`.`.",
"`.`.`.`.`.`.`.!.!.!.!.!.!.!.!.!.!.!.!.!.!.!.!.!.~.~.e.@ J [ { [ U I I G o +.Q.!.!.U.U.U.!.!.!.!._.`.`.`.`.`.`.`.`.`.`.`.`.`.`.`.",
"`.`.`.`.`.`._.!.!.!.!.!.!.!.!.!.!.!.!.!.!.!.!.!.!.H.G D [ { { { I I I I > 1 D.!.!.Q.U.U.!.!.!.~.`.`.`.`.`.`.`.`.`.`.`.`.`.`.`.`.",
"`.`.`.`.`.`.!.!.!.!.!.!.!.!.!.!.!.!.!.!.!.!.!.!.!.q.# ` { { [ [ I I I I P O 4.Q.!.!.!.~.!.!.~.`.`.`.`.`.`.`.`.`.`.`.`.`.`.`.`.`.",
"`.`.`.`.`.`.!.!.!.!.!.!.!.!.!.!.!.!.!.~.!.!.!.!.D.T H { { [ { [ I I I I I S - N.!.!.!.!.!.~.`.`.`.`.`.`.`.`.`.`.`.`.`.`.`.`.`.`.",
"`.`.`.`.`._.!.!.!.!.!.!.!.!.!._._._.~.~.~.!.!.P.O.> [ { { [ { [ I I P I I P = ) Q.!.!.!.~.`.`.`.`.`.`.`.`.`.`.`.`.`.`.`.`.`.`.`.",
"`.`.`.`.`.!.!.!.!.!.!.!.!.!.!._._._._._.~.!.!.7.+ J { { { { { [ I I I I I I F & h.!.!.~.`.`.`.`.`.`.`.`.`.`._._.`.`.`.`.`.`.`.`.",
"`.`.`.`._.!.!.!.!.!.!.!.!.!.!._._.`._._.~.!.F.0 4 [ { { [ { { [ I I I I P I I # Y K._.`.`.`.`.`.`.`.`.`.`._._._._.`.`.`.`.`.`.`.",
"`.`.`.`.!.!.!.!.!.!.!.!.!.!.!.`._._._._.~.Q.4.@ U { [ { [ { { [ I J I I J I I G o f.`.`.`.`.`.`.`.`.`.`.`._._._._._._.`.`.`.`.`.",
"`.`.`._.!.!.!.!.!.!.!.!.!.!.!._._._._._.~.m.5 F { { { { { { { [ I I I I I I I J @ o.(.`.`.`.`.`.`.`.`.`._._._._._._.`.`.`.`.`.`.",
"`.`.`.!.!.!.!.!.!.!.!.!.!.!.!._.~.~._._.!.%.# [ [ { { { { { { [ I I J I I I I I F ; B.`.`.`.`.`.`.`.`.`._._._._._._.`.`.`.`.`.`.",
"`.`._.!.!.!.!.!.!.!.!.!.!.!.!.!.!.!.!.!.M.6 J { { { [ [ { [ { [ I I I I I I I I P @ o./.`.`.`.`.`.`.`.`.`.`._._.`.`.`.`.`.`.`.`.",
"`.`.!.!.!.!.!.!.!.!.!.!.!.!.!.!.!.!.!.I.$.4 [ { [ { { { { { { [ I I I I I P I I I F * c.`.`.`.`.`.`.`.`.`.`.`._.`.`.`.`.`.`.`.`.",
"`._.!.!.!.!.!.!.!.!.!.!.!.!.!.!.!.!.!.u.> I { { { { [ { { { { { I I I I I I I I I P @ @.(.`.`.`.`.`.`.`.`.`.`.`.`.`.`.`.`.`.`.`.",
"_.!.!.!.!.!.!.!.!.!.!.!.!.!.!.!.!.!.H.T D { { { { { { { { { { U I I I I I I I I I I G < V.`.`.`.`.`.`.`.`.`.`.`.`.`.`.`.`.`.`.`.",
"!.!.!.!.!.!.!.!.!.!.!.!.!.!.!.!.!.!.d.O H { { [ { [ { { { [ { [ I I I I I P I I I I P O &.`.`.`.`.`.`.`.`.`.`.`.`.`.`.`.`.`.`.`.",
"!.!.!.!.!.!.!.!.!.!.!.!.!.!.!.!.!.!.v.* G [ [ { { { { { { { { [ J I I I J I I I I P K + E /.`.`.`.`.`.`.`.`.`.`.`.`.`.`.`.`.`.!.",
"!.!.!.!.!.!.!.!.!.!.!.!.!.!.!.!.!.!.I.) D U [ [ { [ { { { { { U I I I I I I I I I P K + ~ (.`.)._.`.`.`.`.`.`.`.`.`.`.`.`.`.~.!.",
"!.!.!.!.!.!.!.!.!.!.!.!.!.!.!.!.!.!.~.f.+ H U [ [ { [ { { { { [ I I I I I I J I P P 6 . 6.`._.~.~.~._._.`.`.`.`.`.`.`.`.`._.!.!.",
"!.!.!.!.!.!.!.!.!.!.!.!.!.!.!.!._.`.`.c.+ J U U U U [ U U [ { U I J I P P P P P P H 3   8.`._.).~.~.~.~.`.`.`.`.`.`.`.`._.!.!.!.",
"!.!.!.!.!.!.!.!.!.!.!.!.!.!._.`.`.`./.#.4 ` U U U U U U [ U U U P P K P P P P K K K H + ! ^.~.~._.~._._.`.`.`.`.`.`.`.~.!.!.!.!.",
"!.!.!.!.!.!.!.!.!.!.!.!._.`.`.`.`.(.;.@ I { [ [ U [ [ U [ U U U K K K K P H K P K P I F O u._.~.~.~.~._.`.`.`.`.`.`.~.!.!.!.!.!.",
"!.!.!.!.!.!.!.!.!.!.~.`.`.`.`.`.`.V., D { { { { { [ U U U U [ U P K P P P P P P I I I I = o.)._.~.~.~.`.`.`.`.`.`.!.!.!.!.!.!.!.",
"!.!.!.!.!.!.!.!.!._.`.`.`.`.`.`.`.8.# U { { { { { { { { { [ [ U P P P I P I I I I I I I K 5 C.`._._._.`.`.`.`._.!.!.!.!.!.!.!.!.",
"!.!.!.!.!.!.Q.Q.`.`.`.`.`.`.`.`.Y.R K { { { { { { { { { { { { [ I I I I I I I I I I I I I F @./.`.`.`.`.`.`.~.!.!.!.!.!.!.!.!.!.",
"!.!.!.!.!.!.~.`.`.`.`.`.`.`.`.`.r.5 ` { { { { } { { { { { { { { U I I I I U I I I I I I I I - r.`.`.`.`.`.~.!.!.!.!.!.!.!.!.!.!.",
"!.!.!.!.!.~.`.`.`.`.`.`.`.`.`.(.$.4 { { { { { { { } { { { { { { I I I I I U I I I I I I I I > t ^.`.`.!.!.!.!.!.!.!.!.!.!.!.!.!.",
"!.!.!.!.~.`.`.`.`._.`.`.`.`.`.Y.r 4 { { { { { { { { { { { } { { U I I I I I I I I I I I I K > 1 T.~.!.!.!.!.!.!.!.!.!.!.!.!.!.!.",
"!.!.!.~.`.`.`.`.~.~._.`.`.`.`.R.E # I ` { { { { { { { { { { { { U I I I I I I I I I I I P H * ^ I.Q.!.!.!.!.!.!.!.!.!.!.!.!.!.!.",
"!.!.!.`.`.`.`._.~._.~.~._.`.`.`.c.7 # I U { { { { { { { } { { { U I I I I I U I I I I P H * X u.!.!.!.!.!.!.!.!.!.!.!.!.!.!.!.!.",
"!.!.`.`.`.`._.~.~._.~._.~.`.`.`.`.0.o 4 U U { { { { } { { { { { U I I I I I I I I P P P 6   e K.!.!.!.!.!.!.!.!.!.!.!.!.!.!.!.!.",
"!._.`.`.`.`._.~.~.~.~.~._.`.`.`.`.g.@ H U U U U U U { U { { { { U I I I I I P P K K K K G O 8 H.!.!.!.!.!.!.!.!.!.!.!.!.!.!.!.!.",
"~.`.`.`.`.`.`.~.~._.~._.`.`.`.`.E.~ 4 { ` U U U U { U U { U U { I P P P K P K P P K K K P F o %.W.!.!.!.!.!.!.!.!.!.!.!.!.!.!.!.",
"`.`.`.`.`.`.`.`._.!.~._.`.`.`.`.l.@ I { [ ` ` U U U U U U U { U L P K K K P K H K H K P I I > - m.!.!.!.!.!.!.!.!.!.!.!.!.!.!.!.",
"`.`.`.`.`.`.`.`.`.`._.`.`.`.`.(.#.D { { { { [ [ { U U U U U U U P K K K K K H K P P P P I I P & %.Q.!.!.!.!.!.!.!.!.!.!.!.!.!.`.",
"`.`.`.`.`.`.`.`.`.`.`.`.`.`.`.z.6 U { { { { { { { { { U { { U U P K K P P P P I P I I I I I I G & y.!.!.!.!.!.!.!.!.!.!.!.!.~.`.",
"`.`.`.`.`.`.`.`.`.`.`.`.`.`.G.9 H { { { { { { { { { { { { { { [ I I I P I I I I I I I I I U I I > 8 H.!.!.!.!.!.!.!.!.!.!.!.`.`.",
"`.`.`.`.`.`.`.`.`.`.`.`.`.`.;.# ` { { { { { { { { { } { { { { { I I I I I I I I I I I I I I I I D & Z.!.!.!.!.!.!.!.!.!.!._.`.`.",
"`.`.`.`.`.`.`.`.`.`._._._.)./ > ` { { { { } { { { { { { { { { { U I I Q I I I I I I I I I I I I 4 w L.!.!.!.!.!.!.!.!.!.!.`.`.`.",
"`.`.`.`.`.`.`.`.`._._._._._.$.> U { { { { { { { { { { { { { { { I I I I I I U I I I I I U I I P 4 4.!.!.!.!.!.!.!.!.!.!._.`.`.`.",
"`.`.`.`.`.`.`.`.`._._._._._.f., I ` ` { { { { { { { } ' } { { { U I I I I I I I I I I I I I K G 7 Z.!.!.!.!.!.!.!.!.!.!.`.`.`.`.",
"`.`.`.`.`.`.`.`.`.`._._._.`.^...@ I ` ` { { { { { { { { { { { { I I I I U I I I I I I I I K G + ^ L.!.!.!.!.!.!.!.!.Q._.`.`.`.`.",
"`.`.`.`.`.`.`.`.`.`._._._._.`.V.0 3 I ` ` ` { { { { { { { { { { Q I P I I I I I I I I L K G + : j._._._._._._.!.!.!.!.`.`.`.`.`.",
"`.`.`.`.`.`.`.`.`.`._.`.`.`.`.`.B.W # I ` ` ` ` ` ` { { { { { { U I I I I I P P P P K K G O & y.~._._._._._.~.!.!.!._.`.`.`.`.`.",
"`.`.`.`.`.`.`.`.`.`.`.`.`.`.`.`.`.F.R 3 I ` ` ` ` ` U [ U [ U U P P P K K K K K P P K G O t h.Q.~._._._._.`.!.!.!.!.`.`.`.`.`.`.",
"`.`.`.`.`.`.`.`.`.`.`.`.`.`.`.`._.!.m.5 + > 4 D H I [ { U U U I P P K K K K H G 6 > * o ( K.!.!.~._._._._._.~.!.!.!.`.`.`.`.`.`.",
"`.`.`.`.`.`.`.`.`.`.`.`.`.`.`.(.!.!.!.j./ t r 5 * @ s d | ] ' I K L L L q > O o ; w t 6.L.!.!.!._._._._._._.!.!.!._.`.`.`.`.`.`.",
"`.`.`.`.`.`.`.`.`.`.`.`.`.`.`.!.!.!.!.!.W.W.L.A.h. .u B :.Z :.X.n n x v f $ w q.A.L.I.!.!.!.!.!.Q.~.~.~.~.~.!.!.!.`.`.`.`.`.`.`.",
"`.`.`.`.`.`.`.`.`.`.`.`.`.`.~.!.!.!.!.!.!.!.!.!.!.n.g :.,.,.,.,.B M M B l % k.!.!.!.!.!.!.!.!.!.!.!.!.!.!.!.!.!.!.`.`.`.`.`.`.`.",
"`.`.`.`.`.`.`.`.`.`.`.`.`.`.!.!.!.!.!.!.!.!.!.!.!.a.z 2.<.2.,.,.C B B B v i b.!.!.!.!.!.!.!.!.!.!.!.!.!.!.!.!.!._.`.`.`.`.`.`.`.",
"`.`.`.`.`.`.`.`.`.`.`.`.`.!.!.!.!.!.!.!.!.!.!.!.!.9.B <.<.<.<.,.C C C C B i s.!.!.!.!.!.!.!.!.!.!.!.!.!.!.!.!.!.`.`.`.`.`.`.`.`.",
"`.`.`.`.`.`.`.`.`.`.`.`._.!.!.!.!.!.!.!.!.!.!.!.Q.=.C 1.1.1.<.,.A C C C V f s.!.!.!.!.!.!.!.!.!.!.!.!.!.!.!.!.!.`.`.`.`.`.`.`.`.",
"`.`.`.`.`.`.`.`.`.`.`.`.!.!.!.!.!.!.!.!.!.!.!.!.I.N A 1.1.1.,.,.,.C C C V l b.Q.!.!.!.!.!.!.!.!.!.!.!.!.!.!.!.~.`.`.`.`.`.`.`.`.",
"`.`.`.`.`.`.`.`.`.`.`._.!.!.!.!.!.!.!.!.!.!.!.!.Q.3.B 2.1.1.,.,.,.C C C V m S.!.!.!.!.!.!.!.!.!.!.!.!.!.!.!.!.`.`.`.`.`.`.`.`.`.",
"`.`.`.`.`.`.`.`.`.`.`.!.!.!.!.!.!.!.!.!.!.!.!.!.!.S.N g B ,.,.,.,.C B z p j J.!.!.!.!.!.!.!.!.!.!.!.!.!.!.!.!.`.`.`.`.`.`.`.`.`.",
"`.`.`.`.`.`.`.`.`.`.~.!.!.!.!.!.!.!.!.!.!.!.!.!.!.!.J.p.m g g k k k a y i t.!.!.!.!.!.!.!.!.!.!.!.!.!.!.!.!._.`.`.`.`.`.`.`.`.`."
};
